<svg width="1016" height="350" viewBox="0 0 1016 350" fill="none" xmlns="http://www.w3.org/2000/svg">
<rect x="345" width="671" height="350" fill="#293462"/>
<rect width="345" height="350" fill="#1CD6CE"/>
<path d="M314.606 114.79C314.002 113.19 312.756 111.915 311.17 111.275L284.512 100.52C282.857 91.9078 276.315 85.0107 267.898 82.8363L266.46 66.2715C266.25 63.8476 264.623 61.7786 262.317 61.0014C260.011 60.225 257.464 60.8879 255.83 62.6903L248.989 70.2368L244.76 55.4377C244.031 52.8866 241.741 51.0957 239.088 51.0039C236.42 50.9094 234.027 52.5392 233.123 55.0345L201.528 142.197C201.528 142.197 84.4959 147.66 84.447 147.662C60.4486 149.105 37.7128 136.264 26.5404 114.945C24.9704 111.952 21.2723 110.797 18.28 112.366C15.2863 113.935 14.1318 117.633 15.7004 120.626C25.6884 139.684 43.3785 153.092 63.6625 157.974C61.5568 160.428 57.0327 166.51 54.3871 176.072C51.5104 186.468 50.4735 203.042 61.051 224.087L43.8953 247.389C42.8931 248.749 42.4987 250.464 42.8054 252.127L50.3559 293.07C50.891 295.972 53.4223 298.079 56.3738 298.079H64.0651C65.8798 298.079 67.6006 297.273 68.764 295.881C69.9266 294.487 70.4107 292.649 70.0857 290.864L65.3045 264.601L115.891 226.625C115.98 226.558 115.806 226.698 115.891 226.625C120.728 222.563 124.239 218.088 126.751 213.488C153.116 218.117 189.197 224.38 212.323 228.105L222.513 292.911C222.981 295.887 225.545 298.079 228.558 298.079H234.886C238.266 298.079 241.006 295.34 241.006 291.96V226.175C246.75 222.252 248.804 215.691 250.166 209.265C250.208 209.063 263.779 146.43 263.779 146.43C266.337 146.856 268.92 147.08 271.522 147.08C289.442 147.08 305.852 136.588 314.348 119.699C315.116 118.172 315.21 116.392 314.606 114.79Z" fill="#FEDB39"/>
<path d="M444.504 157.896C444.504 165.32 441.944 171.507 436.824 176.456C431.789 181.32 424.067 183.752 413.656 183.752H396.504V221H384.856V131.784H413.656C423.725 131.784 431.363 134.216 436.568 139.08C441.859 143.944 444.504 150.216 444.504 157.896ZM413.656 174.152C420.141 174.152 424.92 172.744 427.992 169.928C431.064 167.112 432.6 163.101 432.6 157.896C432.6 146.888 426.285 141.384 413.656 141.384H396.504V174.152H413.656ZM522.981 183.24C522.981 185.459 522.853 187.805 522.597 190.28H466.533C466.96 197.192 469.306 202.611 473.573 206.536C477.925 210.376 483.173 212.296 489.317 212.296C494.352 212.296 498.533 211.144 501.861 208.84C505.274 206.451 507.664 203.293 509.029 199.368H521.573C519.696 206.109 515.941 211.613 510.309 215.88C504.677 220.061 497.68 222.152 489.317 222.152C482.661 222.152 476.688 220.659 471.397 217.672C466.192 214.685 462.096 210.461 459.109 205C456.122 199.453 454.629 193.053 454.629 185.8C454.629 178.547 456.08 172.189 458.981 166.728C461.882 161.267 465.936 157.085 471.141 154.184C476.432 151.197 482.49 149.704 489.317 149.704C495.973 149.704 501.861 151.155 506.981 154.056C512.101 156.957 516.026 160.968 518.757 166.088C521.573 171.123 522.981 176.84 522.981 183.24ZM510.949 180.808C510.949 176.371 509.968 172.573 508.005 169.416C506.042 166.173 503.354 163.741 499.941 162.12C496.613 160.413 492.901 159.56 488.805 159.56C482.917 159.56 477.882 161.437 473.701 165.192C469.605 168.947 467.258 174.152 466.661 180.808H510.949ZM552.564 160.456V201.8C552.564 205.213 553.289 207.645 554.74 209.096C556.191 210.461 558.708 211.144 562.292 211.144H570.868V221H560.372C553.887 221 549.023 219.507 545.78 216.52C542.537 213.533 540.916 208.627 540.916 201.8V160.456H531.828V150.856H540.916V133.192H552.564V150.856H570.868V160.456H552.564ZM580.629 185.8C580.629 178.547 582.08 172.232 584.981 166.856C587.882 161.395 591.893 157.171 597.013 154.184C602.218 151.197 608.149 149.704 614.805 149.704C623.424 149.704 630.506 151.795 636.053 155.976C641.685 160.157 645.397 165.96 647.189 173.384H634.645C633.45 169.117 631.104 165.747 627.605 163.272C624.192 160.797 619.925 159.56 614.805 159.56C608.149 159.56 602.773 161.864 598.677 166.472C594.581 170.995 592.533 177.437 592.533 185.8C592.533 194.248 594.581 200.776 598.677 205.384C602.773 209.992 608.149 212.296 614.805 212.296C619.925 212.296 624.192 211.101 627.605 208.712C631.018 206.323 633.365 202.909 634.645 198.472H647.189C645.312 205.64 641.557 211.4 635.925 215.752C630.293 220.019 623.253 222.152 614.805 222.152C608.149 222.152 602.218 220.659 597.013 217.672C591.893 214.685 587.882 210.461 584.981 205C582.08 199.539 580.629 193.139 580.629 185.8ZM658.379 185.672C658.379 178.504 659.83 172.232 662.731 166.856C665.632 161.395 669.6 157.171 674.635 154.184C679.755 151.197 685.43 149.704 691.659 149.704C697.803 149.704 703.136 151.027 707.659 153.672C712.182 156.317 715.552 159.645 717.771 163.656V150.856H729.547V221H717.771V207.944C715.467 212.04 712.011 215.453 707.403 218.184C702.88 220.829 697.59 222.152 691.531 222.152C685.302 222.152 679.67 220.616 674.635 217.544C669.6 214.472 665.632 210.163 662.731 204.616C659.83 199.069 658.379 192.755 658.379 185.672ZM717.771 185.8C717.771 180.509 716.704 175.901 714.571 171.976C712.438 168.051 709.536 165.064 705.867 163.016C702.283 160.883 698.315 159.816 693.963 159.816C689.611 159.816 685.643 160.84 682.059 162.888C678.475 164.936 675.616 167.923 673.483 171.848C671.35 175.773 670.283 180.381 670.283 185.672C670.283 191.048 671.35 195.741 673.483 199.752C675.616 203.677 678.475 206.707 682.059 208.84C685.643 210.888 689.611 211.912 693.963 211.912C698.315 211.912 702.283 210.888 705.867 208.84C709.536 206.707 712.438 203.677 714.571 199.752C716.704 195.741 717.771 191.091 717.771 185.8ZM760.879 163.784C763.183 159.773 766.596 156.445 771.119 153.8C775.727 151.069 781.06 149.704 787.119 149.704C793.348 149.704 798.98 151.197 804.015 154.184C809.135 157.171 813.146 161.395 816.047 166.856C818.948 172.232 820.399 178.504 820.399 185.672C820.399 192.755 818.948 199.069 816.047 204.616C813.146 210.163 809.135 214.472 804.015 217.544C798.98 220.616 793.348 222.152 787.119 222.152C781.146 222.152 775.855 220.829 771.247 218.184C766.724 215.453 763.268 212.083 760.879 208.072V254.28H749.231V150.856H760.879V163.784ZM808.495 185.672C808.495 180.381 807.428 175.773 805.295 171.848C803.162 167.923 800.26 164.936 796.591 162.888C793.007 160.84 789.039 159.816 784.687 159.816C780.42 159.816 776.452 160.883 772.783 163.016C769.199 165.064 766.298 168.093 764.079 172.104C761.946 176.029 760.879 180.595 760.879 185.8C760.879 191.091 761.946 195.741 764.079 199.752C766.298 203.677 769.199 206.707 772.783 208.84C776.452 210.888 780.42 211.912 784.687 211.912C789.039 211.912 793.007 210.888 796.591 208.84C800.26 206.707 803.162 203.677 805.295 199.752C807.428 195.741 808.495 191.048 808.495 185.672ZM841.747 139.464C839.528 139.464 837.651 138.696 836.115 137.16C834.579 135.624 833.811 133.747 833.811 131.528C833.811 129.309 834.579 127.432 836.115 125.896C837.651 124.36 839.528 123.592 841.747 123.592C843.88 123.592 845.672 124.36 847.123 125.896C848.659 127.432 849.427 129.309 849.427 131.528C849.427 133.747 848.659 135.624 847.123 137.16C845.672 138.696 843.88 139.464 841.747 139.464ZM847.379 150.856V221H835.731V150.856H847.379ZM881.439 160.456V201.8C881.439 205.213 882.164 207.645 883.615 209.096C885.066 210.461 887.583 211.144 891.167 211.144H899.743V221H889.247C882.762 221 877.898 219.507 874.655 216.52C871.412 213.533 869.791 208.627 869.791 201.8V160.456H860.703V150.856H869.791V133.192H881.439V150.856H899.743V160.456H881.439ZM976.064 150.856V221H964.416V210.632C962.197 214.216 959.083 217.032 955.072 219.08C951.147 221.043 946.795 222.024 942.016 222.024C936.555 222.024 931.648 220.915 927.296 218.696C922.944 216.392 919.488 212.979 916.928 208.456C914.453 203.933 913.216 198.429 913.216 191.944V150.856H924.736V190.408C924.736 197.32 926.485 202.653 929.984 206.408C933.483 210.077 938.261 211.912 944.32 211.912C950.549 211.912 955.456 209.992 959.04 206.152C962.624 202.312 964.416 196.723 964.416 189.384V150.856H976.064Z" fill="#FEDB39"/>
</svg>
